<svg xmlns="http://www.w3.org/2000/svg" xmlns:xlink="http://www.w3.org/1999/xlink" width="16" height="16" version="1.1" viewBox="0 0 16 16"><g fill="none" fill-rule="evenodd" stroke="none" stroke-width="1"><g id="Symbols" transform="translate(-80.000000, -280.000000)"><g id="Security-Icon-Info" transform="translate(80.000000, 280.000000)"><rect width="16" height="16" x="0" y="0" opacity=".2"/><rect width="14" height="14" x="1" y="1" fill="#BFBFBF" rx="2"/><path fill="#FFF" d="M8.95,12.95 L7.05,12.95 L7.05,11.05 L8.95,11.05 L8.95,12.95 L8.95,12.95 Z M9.63,8.4 C9.15,8.88 8.8,9.55 8.8,10 L7.2,10 C7.2,9.17 7.66,8.48 8.13,8 L9.06,7.06 C9.33,6.79 9.5,6.41 9.5,6 C9.5,5.17 8.83,4.5 8,4.5 C7.17,4.5 6.5,5.17 6.5,6 L5,6 C5,4.34 6.34,3 8,3 C9.66,3 11,4.34 11,6 C11,6.66 10.73,7.26 10.3,7.69 C10.3,7.69 9.92,8.11 9.63,8.4 Z"/></g></g></g></svg>