<svg xmlns="http://www.w3.org/2000/svg" xmlns:svg="http://www.w3.org/2000/svg" id="svg2" width="594.108" height="327.015" version="1.1"><metadata id="metadata7"/><g id="layer1" transform="translate(-81.649681,-166.16061)"><text style="font-size:40px;font-style:normal;font-weight:400;line-height:125%;letter-spacing:0;word-spacing:0;fill:#000;fill-opacity:1;stroke:none;font-family:Sans" id="text2985" x="84.853" y="487.687" xml:space="preserve"><tspan id="tspan2987" x="84.853" y="487.687">Start</tspan></text><text style="font-size:40px;font-style:normal;font-weight:400;line-height:125%;letter-spacing:0;word-spacing:0;fill:#000;fill-opacity:1;stroke:none;font-family:Sans" id="text2989" x="566.696" y="483.646" xml:space="preserve"><tspan id="tspan2991" x="566.696" y="483.646">Finish</tspan></text><text style="font-size:40px;font-style:normal;font-weight:400;line-height:125%;letter-spacing:0;word-spacing:0;fill:#000;fill-opacity:1;stroke:none;font-family:Sans" id="text2993" x="379.028" y="199.793" xml:space="preserve"><tspan id="tspan2995" x="379.028" y="199.793" style="text-align:center;text-anchor:middle">Measured</tspan><tspan id="tspan3806" x="379.028" y="249.793" style="text-align:center;text-anchor:middle">Frame</tspan></text><path style="fill:#000;fill-opacity:1;fill-rule:evenodd;stroke:#000;stroke-width:1px;stroke-linecap:butt;stroke-linejoin:miter;stroke-opacity:1" id="path3765" d="m 144.45182,442.73511 c 0,4.74208 -3.84421,8.58629 -8.5863,8.58629 -4.74208,0 -8.58629,-3.84421 -8.58629,-8.58629 0,-4.74208 3.84421,-8.5863 8.58629,-8.5863 4.74209,0 8.5863,3.84422 8.5863,8.5863 z" transform="translate(-10.101521,-7.0710679)"/><path style="fill:#000;fill-opacity:1;fill-rule:evenodd;stroke:#000;stroke-width:1px;stroke-linecap:butt;stroke-linejoin:miter;stroke-opacity:1" id="path3765-1" d="m 144.45182,442.73511 c 0,4.74208 -3.84421,8.58629 -8.5863,8.58629 -4.74208,0 -8.58629,-3.84421 -8.58629,-8.58629 0,-4.74208 3.84421,-8.5863 8.58629,-8.5863 4.74209,0 8.5863,3.84422 8.5863,8.5863 z" transform="translate(486.38845,-12.626893)"/><path style="fill:#000;fill-opacity:1;fill-rule:evenodd;stroke:#000;stroke-width:1px;stroke-linecap:butt;stroke-linejoin:miter;stroke-opacity:1" id="path3765-7" d="m 144.45182,442.73511 c 0,4.74208 -3.84421,8.58629 -8.5863,8.58629 -4.74208,0 -8.58629,-3.84421 -8.58629,-8.58629 0,-4.74208 3.84421,-8.5863 8.58629,-8.5863 4.74209,0 8.5863,3.84422 8.5863,8.5863 z" transform="translate(243.95184,-168.19038)"/><path style="fill:#000;fill-opacity:1;fill-rule:evenodd;stroke:#000;stroke-width:1px;stroke-linecap:butt;stroke-linejoin:miter;stroke-opacity:1" id="path3765-4" d="m 144.45182,442.73511 c 0,4.74208 -3.84421,8.58629 -8.5863,8.58629 -4.74208,0 -8.58629,-3.84421 -8.58629,-8.58629 0,-4.74208 3.84421,-8.5863 8.58629,-8.5863 4.74209,0 8.5863,3.84422 8.5863,8.5863 z" transform="translate(74.246203,-121.72337)"/><path style="fill:#000;fill-opacity:1;fill-rule:evenodd;stroke:#000;stroke-width:1px;stroke-linecap:butt;stroke-linejoin:miter;stroke-opacity:1" id="path3765-0" d="m 144.45182,442.73511 c 0,4.74208 -3.84421,8.58629 -8.5863,8.58629 -4.74208,0 -8.58629,-3.84421 -8.58629,-8.58629 0,-4.74208 3.84421,-8.5863 8.58629,-8.5863 4.74209,0 8.5863,3.84422 8.5863,8.5863 z" transform="translate(405.57624,-126.77413)"/><path style="fill:none;stroke:#000;stroke-width:1px;stroke-linecap:butt;stroke-linejoin:miter;stroke-opacity:1" id="path3810" d="m 126.26907,434.14882 82.83251,-112.12693 170.71578,-46.46701 161.6244,39.39594 82.83251,113.13709 -244.45691,-150.51273 z"/><path style="fill:none;stroke:#000;stroke-width:1px;stroke-linecap:butt;stroke-linejoin:miter;stroke-opacity:1" id="path3812" d="m 127.27922,438.18944 494.97475,-8.08123"/><text style="font-size:40px;font-style:normal;font-weight:400;line-height:125%;letter-spacing:0;word-spacing:0;fill:#000;fill-opacity:1;stroke:none;font-family:Sans" id="text3814" x="139.401" y="374.55" xml:space="preserve"><tspan id="tspan3816" x="139.401" y="374.55">A</tspan></text><text style="font-size:40px;font-style:normal;font-weight:400;line-height:125%;letter-spacing:0;word-spacing:0;fill:#000;fill-opacity:1;stroke:none;font-family:Sans" id="text3818" x="267.69" y="292.727" xml:space="preserve"><tspan id="tspan3820" x="267.69" y="292.727">B</tspan></text><text style="font-size:40px;font-style:normal;font-weight:400;line-height:125%;letter-spacing:0;word-spacing:0;fill:#000;fill-opacity:1;stroke:none;font-family:Sans" id="text3822" x="457.599" y="287.677" xml:space="preserve"><tspan id="tspan3824" x="457.599" y="287.677">C</tspan></text><text style="font-size:40px;font-style:normal;font-weight:400;line-height:125%;letter-spacing:0;word-spacing:0;fill:#000;fill-opacity:1;stroke:none;font-family:Sans" id="text3826" x="589.929" y="369.499" xml:space="preserve"><tspan id="tspan3828" x="589.929" y="369.499">D</tspan></text><text style="font-size:40px;font-style:normal;font-weight:400;line-height:125%;letter-spacing:0;word-spacing:0;fill:#000;fill-opacity:1;stroke:none;font-family:Sans" id="text3830" x="261.63" y="382.631" xml:space="preserve"><tspan id="tspan3832" x="261.63" y="382.631">E</tspan></text><text style="font-size:40px;font-style:normal;font-weight:400;line-height:125%;letter-spacing:0;word-spacing:0;fill:#000;fill-opacity:1;stroke:none;font-family:Sans" id="text3834" x="451.538" y="377.58" xml:space="preserve"><tspan id="tspan3836" x="451.538" y="377.58">F</tspan></text><text style="font-size:40px;font-style:normal;font-weight:400;line-height:125%;letter-spacing:0;word-spacing:0;fill:#000;fill-opacity:1;stroke:none;font-family:Sans" id="text3838" x="365.675" y="477.585" xml:space="preserve"><tspan id="tspan3840" x="365.675" y="477.585">G</tspan></text></g></svg>