<svg xmlns="http://www.w3.org/2000/svg" xmlns:xlink="http://www.w3.org/1999/xlink" width="480" height="977" version="1.1" viewBox="0 0 480 977"><title>Nexus 6P</title><defs><linearGradient id="linearGradient-1" x1="4.2%" x2="96.6%" y1="2.1%" y2="100%"><stop offset="0%" stop-color="#3A3A3A"/><stop offset="100%" stop-color="#181818"/></linearGradient><linearGradient id="linearGradient-2" x1="4.2%" x2="96.6%" y1="38.635%" y2="61.863%"><stop offset="0%" stop-color="#3A3A3A"/><stop offset="100%" stop-color="#181818"/></linearGradient></defs><g id="Page-1" fill="none" fill-rule="evenodd" stroke="none" stroke-width="1"><g id="Nexus6P" transform="translate(4.000000, 4.000000)"><g id="b-link" fill="url(#linearGradient-2)"><rect id="b" width="472" height="969" x="0" y="0" rx="60"/></g><g id="b-link"><rect id="b" width="472" height="969" x="0" y="0" rx="60"/></g><g id="b-link"><rect id="b" width="472" height="969" x="0" y="0" rx="60"/></g><g id="b-link" stroke="#1E1E1E" stroke-width="7"><rect id="b" width="472" height="969" x="0" y="0" rx="60"/></g><g id="b-link" stroke="#616161" stroke-width="5"><rect id="b" width="472" height="969" x="0" y="0" rx="60"/></g><g id="b-link" stroke="#1E1E1E" stroke-width="3"><rect id="b" width="472" height="969" x="0" y="0" rx="60"/></g><g id="b-link" stroke="#B4B4B4" stroke-width="2"><rect id="b" width="472" height="969" x="0" y="0" rx="60"/></g><g id="b-link" stroke="#8A8A8A"><rect id="b" width="472" height="969" x="0" y="0" rx="60"/></g><g id="Group" fill="#444445" transform="translate(472.000000, 319.000000)"><path id="Shape" d="M0,0 L2,0 C3,0 4,1 4,2 L4,58 C4,59 3,60 2,60 L0,60 L0,0 L0,0 Z"/><path id="Shape" d="M0,97 L2,97 C3,97 4,98 4,99 L4,215 C4,216 3,217 2,217 L0,217 L0,97 L0,97 Z"/></g><path id="Shape" fill="#171717" d="M18,100 L453,100 L453,873 L18,873 L18,100 Z"/><rect id="Rectangle-path" width="169" height="14" x="150" y="40" fill="#1E1E1E" stroke="#141414" stroke-width="3" opacity=".4" rx="8"/><rect id="Rectangle-path" width="169" height="14" x="150" y="921" fill="#101010" stroke="#141414" stroke-width="3" rx="8"/><g id="Group" transform="translate(85.000000, 37.000000)"><path id="Shape" fill="#323232" stroke="#2F2F2F" d="M9.2,18 C14.2,18 18,14.2 18,9.3 C18,4.5 14,0.6 9.2,0.6 C4.4,0.6 0.5,4.6 0.5,9.3 C0.5,14.3 4.5,18.1 9.2,18.1 L9.2,18 Z" opacity=".6"/><circle id="Oval" cx="9.2" cy="9.3" r="5" fill="#160F26"/></g></g></g></svg>