<svg xmlns="http://www.w3.org/2000/svg" xmlns:xlink="http://www.w3.org/1999/xlink" width="917" height="455" version="1.1" viewBox="0 0 917 455"><title>Nexus 5X</title><g id="Page-1" fill="none" fill-rule="evenodd" stroke="none" stroke-width="1"><g id="Nexus5X" transform="translate(458.500000, 227.500000) rotate(-90.000000) translate(-458.500000, -227.500000) translate(231.000000, -231.000000)"><rect id="Rectangle-path" width="451.2" height="916.9" x="0" y="0" fill="#656565" opacity=".7" rx="59"/><path id="Shape" fill="#000" d="M3.8,62.4 C3.8,29.8 30.2,3.4 62.8,3.4 L388.8,3.4 C421.3,3.4 447.8,29.9 447.8,62.4 L447.8,853 C447.8,885.5 421.3,912 388.8,912 L62.8,912 C30.2,912 3.8,885.5 3.8,853 L3.8,62.3 L3.8,62.4 Z" opacity=".7"/><rect id="Rectangle-path" width="438.2" height="905.4" x="6.9" y="7.2" fill="#2B292B" rx="59"/><path id="Shape" fill="#656364" d="M451.2,238.2 L455,238.2 L455,300.7 L451.2,300.7 L451.2,238.2 Z M451.2,363.2 L453.9,363.2 L453.9,500.4 L451,500.4 L451.2,363.2 Z"/><g id="Group" transform="translate(76.000000, 30.000000)"><path id="Shape" fill="#373737" d="M9.2,18 C14.2,18 18,14.2 18,9.3 C18,4.5 14,0.6 9.2,0.6 C4.4,0.6 0.5,4.6 0.5,9.3 C0.5,14.3 4.5,18.1 9.2,18.1 L9.2,18 Z" opacity=".6"/><circle id="Oval" cx="9.2" cy="9.3" r="5" fill="#160F26"/></g><path id="Shape" fill="#171717" d="M19.4,87.6 L430.4,87.6 L430.4,818.6 L19.4,818.6 L19.4,87.6 Z" opacity=".5"/><rect id="Rectangle-path" width="164.2" height="14.5" x="143.3" y="871.3" fill="#0D0B0B" stroke="#393939" stroke-width="2" opacity=".3" rx="7"/><rect id="Rectangle-path" width="164.2" height="14.5" x="143.3" y="32.5" fill="#0D0B0B" stroke="#393939" stroke-width="2" opacity=".3" rx="7"/></g></g></svg>